# xmcd CD database file
#
# Track frame offsets:
#	150
#	15290
#	28822
#	44972
#	62447
#	76572
#	89015
#	104875
#	118422
#	136867
#	152595
#	164862
#
# Disc length: 2343 seconds
#
# Revision: 5
# Processed by: cddbd v1.5.2PL0 Copyright (c) Steve Scherf et al.
# Submitted via: CDex 1.51
#
DISCID=a309250c
DTITLE=SHAMPOO - WE ARE SHAMPOO
DYEAR=1994
DGENRE=Pop
TTITLE0=Trouble
TTITLE1=Delicious
TTITLE2=Viva La Megababes
TTITLE3=Dirty Old Love Song
TTITLE4=Skinny White Thing
TTITLE5=Glimmer Globe
TTITLE6=Shiny Black Taxi Cab
TTITLE7=Me Hostage
TTITLE8=Game Boy
TTITLE9=House Of Love
TTITLE10=Shampoo You
TTITLE11=Saddo
EXTD=YEAR: 1994
EXTT0=
EXTT1=
EXTT2=
EXTT3=
EXTT4=
EXTT5=
EXTT6=
EXTT7=
EXTT8=
EXTT9=
EXTT10=
EXTT11=
PLAYORDER=
